 <svg  version="1.0" xmlns="http://www.w3.org/2000/svg"  width="300.000000pt" height="154.000000pt" viewBox="0 0 300.000000 154.000000"  preserveAspectRatio="xMidYMid meet">  <g transform="translate(0.000000,154.000000) scale(0.100000,-0.100000)" fill="#8300e7" stroke="none"> <path d="M655 1384 c-11 -2 -45 -9 -75 -15 -30 -6 -93 -29 -140 -51 -69 -33 -100 -56 -165 -122 -53 -53 -92 -103 -114 -146 -29 -58 -30 -62 -8 -38 147 159 405 188 654 73 169 -78 300 -186 580 -478 300 -313 449 -424 653 -489 97 -30 272 -32 365 -4 155 46 313 171 388 307 21 36 37 69 37 72 0 4 -19 -14 -41 -38 -24 -26 -71 -59 -109 -79 -210 -105 -471 -55 -736 142 -54 39 -194 172 -354 332 -146 147 -290 287 -320 312 -130 106 -250 172 -369 203 -64 16 -209 28 -246 19z"/> <path d="M2121 1379 c-183 -32 -380 -150 -560 -332 l-64 -65 108 -111 107 -110 97 86 c177 159 264 214 367 232 156 29 319 -61 375 -206 30 -79 30 -187 0 -264 -43 -114 -154 -198 -281 -215 l-55 -7 55 -18 c244 -76 502 21 582 219 34 84 31 236 -5 348 -85 257 -317 435 -586 449 -47 2 -110 0 -140 -6z"/> <path d="M410 1129 c-126 -21 -244 -111 -298 -227 -54 -117 -39 -299 36 -452 54 -111 178 -233 292 -289 300 -147 608 -64 936 251 l84 80 -107 114 -106 114 -69 -63 c-102 -92 -202 -170 -270 -210 -151 -89 -323 -66 -438 60 -62 68 -85 132 -84 238 0 66 5 91 28 142 47 103 135 171 250 192 33 6 61 12 63 14 5 6 -68 25 -137 36 -74 12 -103 12 -180 0z"/> </g> </svg> 